<svg width="692" height="175" viewBox="0 0 692 175" xmlns="http://www.w3.org/2000/svg" xmlns:xlink="http://www.w3.org/1999/xlink">
    <g id="Group">
        <path id="Path" fill="none" stroke="#000000" stroke-width="2" stroke-linecap="round" stroke-linejoin="round" d="M 221.550003 35.630005 C 217.25 35.610001 212.949997 35.630005 208.639999 35.630005 C 205.360001 35.630005 204.740005 36.080002 203.539993 39.210007 C 195.059998 61.339996 186.570007 83.459999 178.070007 105.589996 C 177.910004 106.009995 177.710007 106.409996 177.429993 107.019997 C 177.169998 106.43 177.009995 106.089996 176.869995 105.739998 C 173.009995 95.659996 169.130005 85.589996 165.330002 75.489998 C 165.050003 74.739998 165.149994 73.689995 165.449997 72.909996 C 167.710007 66.93 170 60.970001 172.289993 55 L 149.440002 112.119995 C 151.029999 108.169998 152.610001 104.219994 154.199997 100.269997 C 154.380005 99.82 154.589996 99.379997 154.889999 98.699997 C 155.169998 99.389999 155.320007 99.739998 155.470001 100.099998 C 159.869995 111 164.289993 121.899994 168.639999 132.820007 C 169.330002 134.540009 170.399994 135.350006 172.240005 135.320007 C 175.330002 135.279999 178.429993 135.320007 181.520004 135.320007 C 184.5 135.320007 185.289993 134.809998 186.419998 132.029999 C 191.220001 120.240005 195.990005 108.439995 200.809998 96.659996 C 208.580002 77.639999 216.380005 58.629997 224.149994 39.610001 C 225.210007 37.020004 224.320007 35.679993 221.559998 35.669998 Z"/>
        <path id="path1" fill="#000000" stroke="none" d="M 89.68 107.139999 C 90.610001 104.610001 91.449997 102.369995 92.25 100.119995 C 99.650002 79.549995 107.050003 58.979996 114.440002 38.399994 C 115.330002 35.929993 115.800003 35.600006 118.470001 35.600006 C 123.160004 35.600006 127.849998 35.589996 132.539993 35.600006 C 135.479996 35.600006 136.389999 36.919998 135.350006 39.660004 C 131.110001 50.729996 126.849998 61.790001 122.650002 72.869995 C 122.360001 73.639999 122.25 74.699997 122.529999 75.449997 C 126.330002 85.549995 130.210007 95.619995 134.070007 105.699997 C 134.199997 106.049995 134.369995 106.389999 134.630005 106.979996 C 134.899994 106.369995 135.110001 105.969994 135.270004 105.549995 C 143.759995 83.43 152.25 61.299995 160.740005 39.169998 C 161.940002 36.039993 162.550003 35.600006 165.839996 35.589996 C 170.139999 35.589996 174.449997 35.569992 178.75 35.589996 C 181.509995 35.610001 182.399994 36.940002 181.339996 39.529999 C 173.570007 58.549995 165.770004 77.559998 158 96.579994 C 153.190002 108.360001 148.419998 120.169998 143.610001 131.950012 C 142.479996 134.730011 141.690002 135.240005 138.710007 135.240005 C 135.619995 135.240005 132.520004 135.210007 129.429993 135.240005 C 127.589996 135.26001 126.519997 134.460007 125.830002 132.740005 C 121.480003 121.820007 117.059998 110.919998 112.660004 100.019997 C 112.519997 99.659996 112.370003 99.309998 112.080002 98.619995 C 111.779999 99.309998 111.57 99.75 111.389999 100.189995 C 107.279999 110.43 103.169998 120.680008 99.050003 130.919998 C 98.739998 131.680008 98.440002 132.450012 98.029999 133.150009 C 97.220001 134.529999 96.099998 135.309998 94.370003 135.25 C 91.330002 135.150009 88.279999 135.130005 85.239998 135.25 C 83.110001 135.340012 81.75 134.529999 80.959999 132.570007 C 78.279999 125.960007 75.529999 119.380005 72.889999 112.759995 C 63.16 88.360001 53.470001 63.949997 43.779999 39.539993 C 43.549999 38.970001 43.380001 38.350006 43.310001 37.740005 C 43.16 36.440002 43.84 35.639999 45.110001 35.619995 C 50.380001 35.569992 55.650002 35.529999 60.91 35.619995 C 62.66 35.649994 63.380001 37.100006 63.919998 38.550003 C 65.980003 44.059998 68.050003 49.559998 70.110001 55.07 C 76.449997 71.979996 82.800003 88.889999 89.139999 105.799995 C 89.269997 106.139999 89.419998 106.459999 89.690002 107.089996 Z"/>
    </g>
    <g id="g1">
        <text id="technology-solutions" xml:space="preserve" x="237" y="121" font-family="COCOGOOSE" font-size="35.834988" font-weight="700" fill="#000000">technology solutions</text>
        <text id="WHITE" xml:space="preserve" x="506" y="78" font-family="COCOGOOSE" font-size="39.599876" font-weight="700" fill="#000000" letter-spacing="1.583995">WHITE</text>
        <text id="-" xml:space="preserve" x="450" y="78" font-family="COCOGOOSE" font-size="39.599876" font-weight="700" fill="#000000"> &amp;</text>
        <text id="ACE" xml:space="preserve" x="360" y="78" font-family="COCOGOOSE" font-size="39.599876" font-weight="700" fill="#000000" letter-spacing="1.583995">ACE</text>
        <text id="L" xml:space="preserve" x="334" y="78" font-family="COCOGOOSE" font-size="39.599876" font-weight="700" fill="#000000" letter-spacing="3.563989">L</text>
        <text id="AL" xml:space="preserve" x="278" y="78" font-family="COCOGOOSE" font-size="39.599876" font-weight="700" fill="#000000" letter-spacing="1.583995">AL</text>
        <text id="W" xml:space="preserve" x="237" y="78" font-family="COCOGOOSE" font-size="39.599876" font-weight="700" fill="#000000" letter-spacing="-1.187996">W</text>
    </g>
</svg>
