<svg width="692" height="175" viewBox="0 0 692 175" xmlns="http://www.w3.org/2000/svg" xmlns:xlink="http://www.w3.org/1999/xlink">
    <g id="Group">
        <path id="Path" fill="none" stroke="#000000" stroke-width="1.93116" stroke-linecap="round" stroke-linejoin="round" d="M 175.534363 39.061356 C 171.382355 39.042038 167.230362 39.061356 163.06871 39.061356 C 159.901611 39.061356 159.302963 39.495865 158.144257 42.518127 C 149.956131 63.886406 141.758377 85.245041 133.550934 106.613327 C 133.396439 107.018867 133.203339 107.405106 132.932953 107.99411 C 132.681915 107.424416 132.52742 107.096115 132.392227 106.758163 C 128.6651 97.025116 124.918655 87.301727 121.249443 77.54937 C 120.97908 76.825188 121.07563 75.811325 121.365311 75.058174 C 123.547531 69.284004 125.758705 63.529152 127.969872 57.764633 L 105.90638 112.918564 C 107.44165 109.10453 108.967262 105.290482 110.502533 101.47644 C 110.676346 101.041931 110.879112 100.617073 111.168785 99.96048 C 111.439148 100.626732 111.583992 100.964684 111.728821 101.312294 C 115.977371 111.837128 120.245232 122.361938 124.445511 132.906082 C 125.111763 134.566879 126.144928 135.348999 127.921608 135.320038 C 130.905243 135.281403 133.898529 135.320038 136.882187 135.320038 C 139.759613 135.320038 140.522415 134.827576 141.613525 132.143265 C 146.248306 120.759079 150.854141 109.365227 155.508224 97.9907 C 163.010788 79.625366 170.542313 61.269691 178.044861 42.904358 C 179.06839 40.403503 178.209015 39.109619 175.544006 39.099976 Z"/>
        <path id="path1" fill="#000000" stroke="none" d="M 48.203308 108.109978 C 49.101299 105.667061 49.912384 103.504158 50.684849 101.331604 C 57.830143 81.46962 64.975441 61.607643 72.111076 41.735992 C 72.970444 39.351013 73.424263 39.032394 76.002357 39.032394 C 80.530937 39.032394 85.059502 39.02272 89.588066 39.032394 C 92.426872 39.032394 93.305557 40.306946 92.301361 42.952637 C 88.207291 53.641602 84.093918 64.320923 80.038483 75.019547 C 79.758469 75.763046 79.652252 76.78656 79.922615 77.510742 C 83.59182 87.2631 87.33828 96.986496 91.065414 106.719543 C 91.190933 107.057495 91.35508 107.385796 91.60614 107.955482 C 91.866837 107.366478 92.069611 106.980247 92.224113 106.574707 C 100.421875 85.21608 108.619652 63.847786 116.817436 42.479507 C 117.976128 39.45723 118.565132 39.032394 121.741882 39.02272 C 125.893883 39.02272 130.055527 39.003403 134.207535 39.02272 C 136.872528 39.042038 137.731888 40.326263 136.708374 42.827103 C 129.205826 61.192436 121.674301 79.548119 114.171738 97.913452 C 109.527306 109.287987 104.921478 120.69149 100.277046 132.06604 C 99.185936 134.750336 98.423134 135.242783 95.545708 135.242783 C 92.562057 135.242783 89.568764 135.213821 86.585114 135.242783 C 84.808449 135.2621 83.775276 134.489624 83.109032 132.828827 C 78.90876 122.284698 74.640892 111.759872 70.392342 101.235046 C 70.257156 100.887436 70.112328 100.549484 69.832306 99.883232 C 69.542625 100.549484 69.339859 100.974342 69.166054 101.399193 C 65.197517 111.286743 61.228985 121.183945 57.250797 131.071472 C 56.951462 131.805328 56.661793 132.548828 56.265903 133.224731 C 55.483784 134.55722 54.402332 135.310364 52.731884 135.252441 C 49.796516 135.155884 46.851498 135.136566 43.91613 135.252441 C 41.859447 135.339355 40.546261 134.55722 39.783451 132.664688 C 37.195694 126.282196 34.540348 119.92868 31.991219 113.536545 C 22.596125 89.976387 13.239655 66.40657 3.883182 42.836761 C 3.661099 42.286392 3.496952 41.687729 3.429362 41.098724 C 3.284523 39.843475 3.941118 39.070999 5.167406 39.051682 C 10.256013 39.003403 15.344621 38.964783 20.423571 39.051682 C 22.113335 39.080658 22.808554 40.480759 23.329964 41.880844 C 25.319065 47.201187 27.317816 52.511879 29.306908 57.832222 C 35.42868 74.160179 41.56012 90.488144 47.681896 106.816101 C 47.807419 107.144402 47.952255 107.453384 48.212967 108.061699 Z"/>
    </g>
    <g id="g1">
        <text id="technology-solutions" xml:space="preserve" x="196" y="130" font-family="COCOGOOSE" font-size="40.636846" font-weight="700" fill="#000000">technology solutions</text>
        <text id="WHITE" xml:space="preserve" x="500" y="80" font-family="COCOGOOSE" font-size="44.906226" font-weight="700" fill="#000000" letter-spacing="1.796249">WHITE</text>
        <text id="-" xml:space="preserve" x="436" y="80" font-family="COCOGOOSE" font-size="44.906226" font-weight="700" fill="#000000"> &amp;</text>
        <text id="ACE" xml:space="preserve" x="334" y="80" font-family="COCOGOOSE" font-size="44.906226" font-weight="700" fill="#000000" letter-spacing="1.796249">ACE</text>
        <text id="L" xml:space="preserve" x="305" y="80" font-family="COCOGOOSE" font-size="44.906226" font-weight="700" fill="#000000" letter-spacing="4.04156">L</text>
        <text id="AL" xml:space="preserve" x="241" y="80" font-family="COCOGOOSE" font-size="44.906226" font-weight="700" fill="#000000" letter-spacing="1.796249">AL</text>
        <text id="W" xml:space="preserve" x="195" y="80" font-family="COCOGOOSE" font-size="44.906226" font-weight="700" fill="#000000" letter-spacing="-1.347187">W</text>
    </g>
</svg>
