<?xml version="1.0" standalone="no"?>
<!DOCTYPE svg PUBLIC "-//W3C//DTD SVG 20010904//EN"
 "http://www.w3.org/TR/2001/REC-SVG-20010904/DTD/svg10.dtd">
<svg version="1.0" xmlns="http://www.w3.org/2000/svg"
 width="359.000000pt" height="61.000000pt" viewBox="0 0 359.000000 61.000000"
 preserveAspectRatio="xMidYMid meet">

<g transform="translate(0.000000,61.000000) scale(0.100000,-0.100000)"
fill="#000000" stroke="none">
<path d="M3410 581 c0 -5 -2 -16 -5 -23 -4 -9 4 -19 20 -26 22 -10 25 -18 25
-63 0 -45 -2 -50 -17 -44 -53 22 -86 26 -118 15 -36 -12 -84 -60 -87 -88 -1
-9 -4 8 -7 38 l-6 55 -42 3 c-34 3 -47 -2 -76 -28 l-35 -30 -6 25 c-6 23 -11
25 -66 25 -33 0 -60 -4 -60 -9 0 -5 -3 -16 -6 -25 -4 -11 2 -19 20 -26 26 -9
26 -10 26 -120 0 -103 -1 -110 -20 -110 -16 0 -20 -7 -20 -30 l0 -30 110 0
110 0 0 29 c0 27 -3 30 -37 33 l-38 3 -3 96 c-3 94 -2 96 23 107 34 16 33 16
37 -10 2 -19 10 -24 46 -26 l42 -3 0 -65 c0 -74 17 -124 51 -148 33 -22 106
-21 147 4 39 24 42 24 42 5 0 -12 13 -15 60 -15 57 0 60 1 60 25 0 18 -5 25
-20 25 -19 0 -20 7 -20 220 l0 220 -65 0 c-36 0 -65 -4 -65 -9z m11 -221 c16
-9 19 -22 19 -89 0 -51 -4 -82 -13 -89 -22 -19 -61 -23 -80 -10 -25 18 -38 84
-27 133 13 58 53 80 101 55z"/>
<path d="M600 551 c0 -26 4 -31 25 -31 l25 0 0 -184 0 -184 -24 -4 c-13 -3
-38 -3 -55 0 l-31 4 0 174 0 174 -35 0 c-46 0 -148 -56 -141 -77 3 -8 6 -19 6
-24 0 -6 15 -9 33 -7 l32 3 0 -120 0 -120 -30 -5 c-24 -4 -31 -11 -33 -33 l-3
-27 246 0 246 0 -3 28 c-3 25 -7 27 -50 30 l-48 3 0 58 0 58 63 5 c112 9 155
48 164 147 4 47 1 61 -19 91 -37 54 -65 62 -225 68 l-143 5 0 -32z m258 -67
c16 -11 22 -25 22 -53 0 -53 -25 -81 -78 -88 l-42 -6 0 82 0 81 38 0 c21 0 48
-7 60 -16z"/>
<path d="M2635 481 c-110 -27 -172 -113 -163 -227 6 -70 46 -130 108 -162 61
-31 160 -28 212 7 99 68 123 191 59 293 -42 67 -141 107 -216 89z m115 -63
c140 -71 106 -274 -51 -303 -39 -7 -98 12 -132 43 -86 78 -51 239 59 272 48
14 78 11 124 -12z"/>
<path d="M2642 275 l-2 -116 38 3 c32 3 37 6 40 32 2 16 -1 33 -7 39 -7 7 -7
16 0 29 6 10 9 42 7 71 -3 52 -3 52 -39 55 l-36 3 -1 -116z"/>
<path d="M1037 424 c-25 -13 -47 -49 -47 -75 0 -5 22 -9 49 -9 40 0 50 3 54
20 4 14 14 20 34 20 37 0 53 -16 53 -55 l0 -32 -77 -11 c-93 -13 -123 -38
-123 -102 0 -83 83 -123 165 -81 35 19 40 19 48 5 7 -12 24 -15 80 -13 40 1
97 -1 128 -5 113 -16 189 28 189 107 0 61 -22 85 -106 112 -60 19 -69 26 -69
46 0 21 5 24 43 27 37 3 43 0 52 -22 7 -20 17 -26 40 -26 29 0 30 1 30 50 0
48 -1 49 -35 56 -20 3 -65 4 -102 2 -59 -4 -69 -7 -94 -36 -42 -46 -41 -110 1
-145 17 -14 54 -31 85 -37 75 -16 96 -56 37 -74 -37 -12 -80 2 -84 27 -2 17
-11 23 -40 25 -36 3 -38 2 -38 -27 0 -22 -4 -29 -14 -25 -10 4 -15 36 -19 117
-6 130 -10 143 -48 162 -37 20 -155 19 -192 -1z m143 -214 c0 -34 -26 -53 -68
-48 -23 2 -27 8 -27 33 0 25 5 31 30 36 59 13 65 11 65 -21z"/>
<path d="M1652 420 c-41 -25 -61 -85 -42 -130 15 -36 35 -48 115 -70 53 -14
60 -18 60 -40 0 -50 -97 -54 -109 -5 -5 21 -12 25 -41 25 l-35 0 0 -49 c0 -42
3 -50 23 -54 151 -38 257 3 257 97 0 67 -24 90 -126 116 -52 13 -72 33 -54 55
9 11 27 15 54 13 34 -2 42 -7 44 -25 3 -19 10 -23 38 -23 30 0 34 3 34 25 0
52 20 21 50 -77 17 -57 37 -121 44 -143 l13 -40 60 -3 61 -3 17 73 c9 40 21
91 27 113 l11 40 27 -110 26 -110 54 0 55 0 41 139 c24 82 47 142 55 144 18 6
29 22 29 45 0 15 -10 17 -75 17 l-75 0 0 -30 c0 -20 5 -30 15 -30 8 0 15 -3
15 -7 1 -22 -44 -172 -49 -167 -3 3 -17 54 -31 112 l-25 107 -52 3 -52 3 -10
-38 c-5 -21 -18 -69 -27 -108 -9 -38 -20 -73 -24 -78 -3 -4 -18 33 -32 83 -24
85 -24 90 -7 90 14 0 19 7 19 30 l0 29 -173 0 c-153 0 -177 -2 -205 -19z"/>
</g>
</svg>
