<?xml version="1.0" standalone="no"?>
<!DOCTYPE svg PUBLIC "-//W3C//DTD SVG 20010904//EN"
 "http://www.w3.org/TR/2001/REC-SVG-20010904/DTD/svg10.dtd">
<svg version="1.0" xmlns="http://www.w3.org/2000/svg"
 width="352.000000pt" height="352.000000pt" viewBox="0 0 352.000000 352.000000"
 preserveAspectRatio="xMidYMid meet">

<g transform="translate(0.000000,352.000000) scale(0.100000,-0.100000)"
fill="#000000" stroke="none">
<path d="M199 3447 c-73 -37 -130 -104 -151 -176 -11 -37 -13 -320 -13 -1526
l0 -1480 28 -57 c32 -65 89 -121 156 -152 l46 -21 1495 0 1495 0 57 28 c65 32
121 89 152 156 l21 46 0 1480 c0 1206 -2 1489 -13 1526 -21 72 -78 139 -151
176 l-63 33 -1498 0 -1498 0 -63 -33z m826 -2297 c22 -6 59 -18 83 -26 41 -15
42 -16 42 -63 0 -26 -3 -50 -6 -54 -3 -3 -20 3 -37 13 -18 11 -61 27 -97 36
-114 29 -213 3 -280 -72 -44 -51 -60 -93 -60 -161 1 -204 221 -303 428 -193
60 32 65 29 60 -41 -3 -43 -4 -44 -63 -69 -51 -21 -76 -25 -170 -25 -98 0
-116 3 -165 26 -79 37 -125 81 -162 156 -27 56 -32 75 -31 141 1 160 80 273
226 323 58 21 170 25 232 9z m708 -14 c36 -18 37 -20 37 -72 0 -30 -2 -54 -5
-54 -3 0 -29 14 -58 30 -69 39 -123 40 -166 4 -17 -14 -31 -34 -31 -44 0 -29
47 -77 113 -116 96 -56 128 -83 148 -128 42 -93 11 -200 -72 -244 -58 -31
-151 -28 -224 8 l-50 25 -3 63 c-2 34 1 62 6 62 5 0 19 -12 33 -26 30 -33 94
-64 134 -64 40 0 93 33 101 64 11 44 -21 81 -125 150 -126 83 -146 109 -146
198 0 80 19 111 86 146 36 19 56 23 114 20 41 -2 86 -11 108 -22z m430 0 c36
-18 37 -20 37 -72 0 -30 -2 -54 -5 -54 -3 0 -29 14 -58 30 -69 39 -123 40
-166 4 -17 -14 -31 -34 -31 -44 0 -29 47 -77 113 -116 96 -56 128 -83 148
-128 42 -93 11 -200 -72 -244 -58 -31 -151 -28 -224 8 l-50 25 -3 63 c-2 34 1
62 6 62 5 0 19 -12 33 -26 30 -33 94 -64 134 -64 40 0 93 33 101 64 10 42 -20
78 -127 151 -132 90 -144 106 -144 195 0 82 18 113 86 148 36 19 56 23 114 20
41 -2 86 -11 108 -22z m770 -7 c24 -30 22 -82 -6 -114 -32 -38 -92 -38 -124 0
-38 43 -27 115 20 135 33 14 90 3 110 -21z m-1593 -304 l0 -325 -50 0 -50 0 0
325 0 325 50 0 50 0 0 -325z m1280 303 c143 -73 126 -290 -27 -336 -22 -7 -75
-12 -117 -12 l-76 0 0 -140 0 -140 -50 0 -50 0 0 325 0 325 138 0 c123 0 143
-2 182 -22z"/>
<path d="M2843 1129 c-20 -7 -43 -37 -43 -56 0 -5 7 -18 15 -29 14 -18 14 -18
8 3 -3 13 -2 34 1 48 6 22 11 26 39 23 29 -3 32 -6 32 -38 0 -24 5 -35 15 -35
36 0 12 77 -27 87 -10 3 -28 1 -40 -3z"/>
<path d="M2850 1090 c0 -5 5 -10 10 -10 6 0 10 5 10 10 0 6 -4 10 -10 10 -5 0
-10 -4 -10 -10z"/>
<path d="M2847 1039 c-7 -28 -5 -32 22 -27 20 3 20 4 2 27 l-18 24 -6 -24z"/>
<path d="M2400 964 l0 -96 79 3 c67 4 83 8 105 28 37 35 36 98 0 135 -24 24
-34 26 -105 26 l-79 0 0 -96z"/>
</g>
</svg>
