<?xml version="1.0" encoding="UTF-8" standalone="no"?>
<!DOCTYPE svg PUBLIC "-//W3C//DTD SVG 1.1//EN" "http://www.w3.org/Graphics/SVG/1.1/DTD/svg11.dtd">
<svg xmlns="http://www.w3.org/2000/svg" xmlns:xlink="http://www.w3.org/1999/xlink" version="1.1" width="264pt" height="173pt" viewBox="0 0 264 173">
<g enable-background="new">
<clipPath id="cp0">
<path transform="matrix(1.32258,0,0,-1.25862,50,123)" d="M 0 0 L 124 0 L 124 58 L 0 58 Z "/>
</clipPath>
<g clip-path="url(#cp0)">
<clipPath id="cp1">
<path transform="matrix(.013225799,0,0,-.0125862,50,123)" d="M 0 0 L 12400 0 L 12400 5800 L 0 5800 "/>
</clipPath>
<g clip-path="url(#cp1)">
<clipPath id="cp2">
<path transform="matrix(.013225799,0,0,-.0125862,50,123)" d="M 0 0 L 0 5800 L 12400 5800 L 12400 0 " fill-rule="evenodd"/>
</clipPath>
<g clip-path="url(#cp2)">
<clipPath id="cp3">
<path transform="matrix(.013225799,0,0,-.0125862,50,123)" d="M 0 5800 L 0 0 L 12400 0 L 12400 5800 "/>
</clipPath>
<g clip-path="url(#cp3)">
<path transform="matrix(.013225799,0,0,-.0125862,50,123)" d="M 2335.035 3266.2349 L 2071.317 3266.2349 L 2071.317 4793.496 C 2071.317 4914.027 2078.608 5060.954 2093.292 5234.386 L 2087.012 5234.386 C 2061.902 5131.754 2039.364 5058.348 2019.524 5013.941 L 1251.918 3266.2349 L 1123.2001 3266.2349 L 354.031 5001.254 C 333.064 5047.699 310.52699 5125.41 286.533 5234.386 L 280.254 5234.386 C 288.55 5143.4216 292.811 4995.364 292.811 4790.324 L 292.811 3266.2349 L 38.515 3266.2349 L 38.515 5540.473 L 386.996 5540.473 L 1077.678 3954.533 C 1129.928 3834.0093 1164.016 3743.042 1179.7109 3681.758 L 1190.699 3681.758 C 1242.951 3827.663 1279.0491 3920.6612 1299.015 3960.878 L 2003.817 5540.473 L 2335.035 5540.473 L 2335.035 3266.2349 " fill="#080808"/>
<path transform="matrix(.013225799,0,0,-.0125862,50,123)" d="M 3067.76 3266.2349 L 2810.334 3266.2349 L 2810.334 4890.239 L 3067.76 4890.239 L 3067.76 3266.2349 M 3111.723 5472.277 C 3111.723 5423.566 3094.902 5383.125 3061.491 5350.953 C 3027.965 5318.668 2988.159 5302.581 2942.187 5302.581 C 2895.0899 5302.581 2855.295 5318.101 2822.883 5349.367 C 2790.3682 5380.519 2774.224 5421.5275 2774.224 5472.277 C 2774.224 5517.7028 2790.149 5557.125 2822.102 5590.43 C 2853.94 5623.734 2893.976 5640.3859 2942.187 5640.3859 C 2990.283 5640.3859 3030.537 5623.961 3063.053 5591.223 C 3095.4532 5558.371 3111.723 5518.723 3111.723 5472.277 " fill="#080808"/>
<path transform="matrix(.013225799,0,0,-.0125862,50,123)" d="M 4591.64 3340.7769 C 4467.0666 3264.658 4320.08 3226.5863 4150.544 3226.5863 C 4003.995 3226.5863 3872.4739 3260.69 3755.753 3328.8873 C 3639.0333 3397.083 3548.329 3493.4793 3483.4129 3618.318 C 3418.4849 3743.042 3386.084 3883.17 3386.084 4038.586 C 3386.084 4307.069 3462.218 4522.7585 3614.4859 4685.6525 C 3766.7413 4848.437 3969.4698 4929.8859 4222.751 4929.8859 C 4363.02 4929.8859 4487.0319 4902.359 4594.774 4847.418 L 4594.774 4580.979 C 4474.4709 4665.4885 4346.762 4707.855 4211.764 4707.855 C 4045.374 4707.855 3910.1558 4647.816 3805.9849 4527.851 C 3701.825 4407.768 3649.802 4252.687 3649.802 4062.378 C 3649.802 3873.0889 3699.242 3723.438 3798.143 3613.562 C 3897.033 3503.559 4029.678 3448.622 4196.068 3448.622 C 4336.338 3448.622 4468.191 3495.0679 4591.64 3588.1822 L 4591.64 3340.7769 " fill="#080808"/>
<path transform="matrix(.013225799,0,0,-.0125862,50,123)" d="M 5738.778 4626.973 C 5692.691 4661.8645 5627.327 4679.309 5542.559 4679.309 C 5428.537 4679.309 5335.915 4625.048 5264.719 4516.75 C 5193.522 4408.336 5157.975 4267.419 5157.975 4094.0924 L 5157.975 3266.2349 L 4900.537 3266.2349 L 4900.537 4890.239 L 5157.975 4890.239 L 5157.975 4555.61 L 5164.256 4555.61 C 5199.8024 4667.64 5254.7409 4756.226 5329.084 4821.25 C 5403.415 4886.274 5488.63 4918.785 5584.949 4918.785 C 5651.8859 4918.785 5703.231 4911.309 5738.778 4896.581 L 5738.778 4626.973 " fill="#080808"/>
<path transform="matrix(.013225799,0,0,-.0125862,50,123)" d="M 7093.2375 4075.069 C 7093.2375 4279.089 7048.493 4435.527 6959.018 4544.5095 C 6869.5427 4653.366 6741.616 4707.855 6575.2277 4707.855 C 6409.836 4707.855 6278.9929 4652.008 6182.79 4540.541 C 6086.471 4428.961 6038.375 4271.723 6038.375 4068.723 C 6038.375 3874.11 6086.7009 3722.1959 6183.5705 3612.762 C 6280.336 3503.339 6410.8459 3448.622 6575.2277 3448.622 C 6742.627 3448.622 6870.7819 3502.539 6959.81 3610.384 C 7048.7229 3718.229 7093.2375 3873.0889 7093.2375 4075.069 M 7356.954 4084.5799 C 7356.954 3826.527 7284.4035 3619.107 7139.5417 3462.101 C 6994.565 3305.095 6800.149 3226.5863 6556.3854 3226.5863 C 6318.799 3226.5863 6129.079 3302.938 5987.352 3455.756 C 5845.521 3608.458 5774.657 3809.649 5774.657 4059.211 C 5774.657 4327.681 5847.312 4539.973 5992.851 4695.961 C 6138.276 4851.836 6338.639 4929.8859 6594.056 4929.8859 C 6832.6638 4929.8859 7019.4558 4854.554 7154.4567 4703.891 C 7289.4548 4553.232 7356.954 4346.7175 7356.954 4084.5799 " fill="#080808"/>
<path transform="matrix(.013225799,0,0,-.0125862,50,123)" d="M 8552.751 3700.7833 C 8552.751 3560.086 8499.041 3445.908 8391.851 3358.223 C 8284.555 3270.4339 8141.932 3226.5863 7964.095 3226.5863 C 7812.288 3226.5863 7679.4245 3259.333 7565.389 3324.92 L 7565.389 3604.039 C 7691.972 3500.3929 7831.1159 3448.622 7982.937 3448.622 C 8187.008 3448.622 8289.033 3524.184 8289.033 3675.4139 C 8289.033 3736.6959 8269.078 3786.6583 8229.387 3825.2862 C 8189.5798 3863.798 8099.0939 3915.905 7957.826 3981.4913 C 7815.422 4042.7862 7714.959 4108.592 7656.437 4178.946 C 7597.7917 4249.184 7568.5246 4342.518 7568.5246 4458.866 C 7568.5246 4593.101 7621.902 4705.136 7728.6457 4795.081 C 7835.3869 4884.914 7970.8239 4929.8859 8135.204 4929.8859 C 8261.787 4929.8859 8376.383 4904.5109 8478.971 4853.7609 L 8478.971 4592.08 C 8374.248 4669.226 8252.935 4707.855 8114.7907 4707.855 C 8030.0339 4707.855 7961.7419 4686.671 7909.9489 4644.418 C 7858.1437 4602.0568 7832.2419 4547.6765 7832.2419 4481.068 C 7832.2419 4409.1369 7852.094 4353.851 7891.8879 4315.339 C 7931.5808 4276.711 8013.7756 4230.937 8138.338 4178.157 C 8291.054 4112.559 8398.359 4043.8062 8460.141 3971.9793 C 8521.808 3900.048 8552.751 3809.649 8552.751 3700.7833 " fill="#080808"/>
<path transform="matrix(.013225799,0,0,-.0125862,50,123)" d="M 10045.2299 4075.069 C 10045.2299 4279.089 10000.497 4435.527 9911.0209 4544.5095 C 9821.547 4653.366 9693.608 4707.855 9527.219 4707.855 C 9361.839 4707.855 9230.985 4652.008 9134.781 4540.541 C 9038.475 4428.961 8990.368 4271.723 8990.368 4068.723 C 8990.368 3874.11 9038.693 3722.1959 9135.574 3612.762 C 9232.328 3503.339 9362.851 3448.622 9527.219 3448.622 C 9694.618 3448.622 9822.775 3502.539 9911.802 3610.384 C 10000.715 3718.229 10045.2299 3873.0889 10045.2299 4075.069 M 10308.947 4084.5799 C 10308.947 3826.527 10236.406 3619.107 10091.533 3462.101 C 9946.557 3305.095 9752.143 3226.5863 9508.378 3226.5863 C 9270.791 3226.5863 9081.083 3302.938 8939.3549 3455.756 C 8797.513 3608.458 8726.648 3809.649 8726.648 4059.211 C 8726.648 4327.681 8799.315 4539.973 8944.844 4695.961 C 9090.268 4851.836 9290.644 4929.8859 9546.059 4929.8859 C 9784.657 4929.8859 9971.449 4854.554 10106.448 4703.891 C 10241.446 4553.232 10308.947 4346.7175 10308.947 4084.5799 " fill="#080808"/>
<path transform="matrix(.013225799,0,0,-.0125862,50,123)" d="M 11363.475 5442.144 C 11313.243 5470.691 11256.169 5484.9655 11192.367 5484.9655 C 11012.417 5484.9655 10922.38 5370.211 10922.38 5140.816 L 10922.38 4890.239 L 11299.109 4890.239 L 11299.109 4669.793 L 10922.38 4669.793 L 10922.38 3266.2349 L 10664.94 3266.2349 L 10664.94 4669.793 L 10391.809 4669.793 L 10391.809 4890.239 L 10664.94 4890.239 L 10664.94 5153.5046 C 10664.94 5318.441 10713.038 5451.66 10809.355 5553.16 C 10905.674 5654.66 11028.113 5705.41 11176.672 5705.41 C 11255.159 5705.41 11317.389 5695.894 11363.475 5676.8635 L 11363.475 5442.144 " fill="#080808"/>
<path transform="matrix(.013225799,0,0,-.0125862,50,123)" d="M 12298.734 3282.0919 C 12236.964 3247.2113 12156.363 3229.765 12056.935 3229.765 C 11776.556 3229.765 11636.252 3389.369 11636.252 3708.717 L 11636.252 4669.793 L 11359.997 4669.793 L 11359.997 4890.239 L 11636.252 4890.239 L 11636.252 5286.723 L 11893.667 5370.7775 L 11893.667 4890.239 L 12298.734 4890.239 L 12298.734 4669.793 L 11893.667 4669.793 L 11893.667 3753.122 C 11893.667 3644.14 11912.038 3566.7679 11948.663 3520.786 C 11985.289 3474.791 12046.485 3451.789 12132.252 3451.789 C 12196.089 3451.789 12251.658 3469.2349 12298.734 3504.128 L 12298.734 3282.0919 " fill="#080808"/>
<path transform="matrix(.013225799,0,0,-.0125862,50,123)" d="M 4043.801 1715.4199 C 4043.801 2016.741 3867.9959 2167.414 3516.3763 2167.414 L 3207.1339 2167.414 L 3207.1339 1234.8779 L 3483.4129 1234.8779 C 3664.487 1234.8779 3803.0689 1276.336 3899.387 1359.369 C 3995.705 1442.298 4043.801 1561.012 4043.801 1715.4199 M 4320.08 1729.6881 C 4320.08 1509.694 4244.956 1332.411 4094.825 1197.607 C 3944.6812 1062.8041 3747.6822 995.40798 3503.8153 995.40798 L 3207.1339 995.40798 L 3207.1339 134.235 L 2943.416 134.235 L 2943.416 2408.473 L 3561.889 2408.473 C 3802.621 2408.473 3989.091 2349 4121.507 2230.0543 C 4253.923 2111.1072 4320.08 1944.241 4320.08 1729.6881 " fill="#080808"/>
<path transform="matrix(.013225799,0,0,-.0125862,50,123)" d="M 5405.998 955.75906 L 5016.6965 900.24099 C 4883.832 881.217 4790.66 849.155 4737.294 804.29806 C 4683.916 759.324 4657.233 686.592 4657.233 586.229 C 4657.233 504.786 4686.052 439.536 4743.563 390.363 C 4801.085 341.202 4874.8649 316.622 4964.9025 316.622 C 5092.611 316.622 5198 362.048 5281.206 453.01499 C 5364.401 543.866 5405.998 657.59207 5405.998 793.985 L 5405.998 955.75906 M 5663.436 134.235 L 5405.998 134.235 L 5405.998 387.985 L 5399.7185 387.985 C 5287.704 192.35102 5122.888 94.58601 4905.2448 94.58601 C 4750.406 94.58601 4626.394 137.06601 4533.2219 222.256 C 4440.049 307.33 4393.515 421.741 4393.515 565.61599 C 4393.515 867.95797 4570.3415 1044.568 4924.086 1095.318 L 5405.998 1163.515 C 5405.998 1438.33 5295.558 1575.86 5074.78 1575.86 C 4881.145 1575.86 4706.454 1509.694 4550.4899 1377.616 L 4550.4899 1644.0559 C 4597.587 1679.958 4678.199 1714.619 4792.233 1747.934 C 4906.255 1781.238 5007.843 1797.884 5096.756 1797.884 C 5474.508 1797.884 5663.436 1595.3359 5663.436 1190.473 L 5663.436 134.235 " fill="#080808"/>
<path transform="matrix(.013225799,0,0,-.0125862,50,123)" d="M 6906.433 1494.973 C 6860.3576 1529.866 6794.982 1547.312 6710.2145 1547.312 C 6596.077 1547.312 6503.4685 1493.048 6432.374 1384.75 C 6361.1774 1276.336 6325.631 1135.42 6325.631 962.09207 L 6325.631 134.235 L 6068.204 134.235 L 6068.204 1758.235 L 6325.631 1758.235 L 6325.631 1423.61 L 6331.911 1423.61 C 6367.458 1535.6431 6422.397 1624.2319 6496.7395 1689.25 C 6570.9675 1754.2681 6656.2858 1786.7831 6752.604 1786.7831 C 6819.541 1786.7831 6870.7819 1779.3119 6906.433 1764.58 L 6906.433 1494.973 " fill="#080808"/>
<path transform="matrix(.013225799,0,0,-.0125862,50,123)" d="M 7945.266 150.09201 C 7883.484 115.211 7802.861 97.765 7703.5236 97.765 C 7422.997 97.765 7282.841 257.369 7282.841 576.717 L 7282.841 1537.789 L 7006.563 1537.789 L 7006.563 1758.235 L 7282.841 1758.235 L 7282.841 2154.723 L 7540.268 2238.7769 L 7540.268 1758.235 L 7945.266 1758.235 L 7945.266 1537.789 L 7540.268 1537.789 L 7540.268 621.12197 C 7540.268 512.14 7558.546 434.768 7595.2189 388.786 C 7631.764 342.79203 7692.9836 319.789 7778.876 319.789 C 7842.6667 319.789 7898.168 337.235 7945.266 372.12803 L 7945.266 150.09201 " fill="#080808"/>
<path transform="matrix(.013225799,0,0,-.0125862,50,123)" d="M 9542.914 134.235 L 9285.476 134.235 L 9285.476 1060.426 C 9285.476 1404.006 9160.913 1575.86 8911.88 1575.86 C 8785.297 1575.86 8679.334 1527.488 8594.015 1430.744 C 8508.686 1334 8466.076 1210.518 8466.076 1060.426 L 8466.076 134.235 L 8208.641 134.235 L 8208.641 1758.235 L 8466.076 1758.235 L 8466.076 1488.628 L 8472.357 1488.628 C 8592.672 1694.8059 8768.477 1797.884 8999.794 1797.884 C 9176.609 1797.884 9311.378 1739.6641 9403.999 1623.432 C 9496.608 1507.095 9542.914 1342.155 9542.914 1128.622 L 9542.914 134.235 " fill="#080808"/>
<path transform="matrix(.013225799,0,0,-.0125862,50,123)" d="M 10963.186 1101.664 C 10961.061 1251.756 10925.296 1368.324 10855.661 1451.3569 C 10786.037 1534.286 10687.928 1575.86 10561.333 1575.86 C 10442.04 1575.86 10340.004 1532.464 10255.236 1445.812 C 10170.468 1359.033 10117.103 1244.39 10095.127 1101.664 L 10963.186 1101.664 M 11226.902 881.217 L 10091.982 881.217 C 10096.138 698.262 10144.017 558.482 10235.615 461.738 C 10327.225 364.994 10454.038 316.622 10616.282 316.622 C 10798.368 316.622 10964.195 375.759 11113.879 494.241 L 11113.879 251.592 C 10973.621 146.926 10787.38 94.58601 10555.063 94.58601 C 10325.882 94.58601 10146.933 169.36 10018.213 319 C 9889.494 468.536 9825.129 675.491 9825.129 939.89 C 9825.129 1100.527 9857.312 1247.2319 9921.676 1379.994 C 9986.03 1512.64 10074.726 1615.509 10187.737 1688.4609 C 10300.761 1761.414 10426.345 1797.884 10564.479 1797.884 C 10772.695 1797.884 10935.159 1729.3511 11051.879 1592.506 C 11168.6 1455.556 11226.902 1263.8779 11226.902 1017.61 L 11226.902 881.217 " fill="#080808"/>
<path transform="matrix(.013225799,0,0,-.0125862,50,123)" d="M 12361.537 1494.973 C 12315.382 1529.866 12250.052 1547.312 12165.319 1547.312 C 12051.191 1547.312 11958.651 1493.048 11887.467 1384.75 C 11816.282 1276.336 11780.689 1135.42 11780.689 962.09207 L 11780.689 134.235 L 11523.274 134.235 L 11523.274 1758.235 L 11780.689 1758.235 L 11780.689 1423.61 L 11787.004 1423.61 C 11822.482 1535.6431 11877.479 1624.2319 11951.763 1689.25 C 12026.163 1754.2681 12111.356 1786.7831 12207.686 1786.7831 C 12274.622 1786.7831 12325.945 1779.3119 12361.537 1764.58 L 12361.537 1494.973 " fill="#080808"/>
</g>
</g>
</g>
</g>
</g>
</svg>
